<?xml version="1.0" encoding="UTF-8" standalone="no"?>
<svg width="129px" height="18px" viewBox="0 0 129 18" version="1.1" xmlns="http://www.w3.org/2000/svg" xmlns:xlink="http://www.w3.org/1999/xlink">
    <!-- Generator: Sketch 50.2 (55047) - http://www.bohemiancoding.com/sketch -->
    <title>logo墨稿 copy</title>
    <desc>Created with Sketch.</desc>
    <defs></defs>
    <g id="导航" stroke="none" stroke-width="1" fill="none" fill-rule="evenodd">
        <g id="导航－90px" transform="translate(-24.000000, -16.000000)" fill-rule="nonzero">
            <g id="logo墨稿-copy" transform="translate(24.000000, 16.000000)">
                <g id="XMLID_424_">
                    <path d="M77.4151765,17.4206842 C77.6390294,15.6566842 77.8107132,13.7084211 77.9307022,11.5754211 C78.0502169,9.44242105 78.1213566,7.42405263 78.1445956,5.52031579 L82.8303309,5.52031579 L82.7136618,7.10526316 C82.9707132,6.81821053 83.1921949,6.59036842 83.3790551,6.42363158 C83.5659154,6.25642105 83.7968824,6.09347368 84.0733787,5.93431579 C84.3494007,5.77515789 84.6429706,5.64489474 84.9540882,5.544 C85.2647316,5.44263158 85.6052537,5.36305263 85.9747059,5.30478947 C86.3441581,5.24652632 86.7316324,5.21715789 87.1357059,5.21715789 C87.6962868,5.21715789 88.2426397,5.27731579 88.775239,5.39810526 C89.3083125,5.51842105 89.7536471,5.68894737 90.1112426,5.91063158 C90.4693125,6.13231579 90.7685735,6.408 91.0099743,6.73815789 C91.251375,7.06831579 91.4107279,7.42405263 91.4885074,7.80489474 C91.5662868,8.18573684 91.6051765,8.57794737 91.6051765,8.98152632 C91.6051765,9.27710526 91.573875,9.91421053 91.5107978,10.8933158 L91.3097096,15.1124211 C91.2703456,15.9437368 91.2608603,16.6954737 91.2091654,17.4202105 C90.4242574,17.4045789 89.7313566,17.3965263 89.0474669,17.3965263 C88.1226507,17.3965263 86.5931471,17.4202105 86.5931471,17.4202105 C86.5931471,17.4202105 86.662864,15.6618947 86.7411176,14.2673684 C86.8198456,12.8728421 86.8587353,11.8913684 86.8587353,11.3243684 C86.8587353,10.4466316 86.6894228,9.83415789 86.3507978,9.48884211 C86.0116985,9.14305263 85.5858088,8.96968421 85.0717059,8.96968421 C84.6202059,8.96968421 84.1933676,9.11794737 83.792614,9.41257895 C83.391386,9.70768421 83.0821654,10.1368421 82.8640037,10.7005263 C82.6458419,11.2637368 82.5083051,12.1916842 82.4025441,13.4801053 C82.2740184,15.0494211 82.0515882,17.4197368 82.0515882,17.4197368 C82.0515882,17.4197368 80.6852316,17.3960526 79.9468015,17.3960526 C79.1690074,17.397 78.3248162,17.4045789 77.4151765,17.4206842 Z" id="XMLID_449_" fill="#EFF6FF"></path>
                    <path d="M98.4222574,12.1523684 C98.4639926,12.0358421 98.629511,11.5384737 98.917864,10.6607368 L99.4964669,8.88678947 L104.256187,8.90857895 L102.87086,12.4185789 L101.51304,15.8589474 L100.933015,17.4211579 C100.102577,17.4055263 98.6110147,17.3974737 97.9778713,17.3974737 C97.2878162,17.3974737 96.5138162,17.4055263 95.6553971,17.4211579 L94.5356581,13.5980526 L92.0111471,5.52078947 C92.8136029,5.53642105 93.5600956,5.54447368 94.250625,5.54447368 C94.9686618,5.54447368 95.644489,5.53642105 96.2790551,5.52078947 C96.3985699,6.057 96.6342794,6.99489474 96.9866581,8.33542105 C97.3390368,9.67594737 97.726511,11.2708421 98.1486066,13.1201053 L98.4222574,12.1523684" id="XMLID_448_" fill="#EFF6FF"></path>
                    <path d="M76.1318162,6.52263158 C75.7040294,6.06410526 75.1083529,5.73205263 74.3462096,5.526 C73.5835919,5.31994737 72.7431949,5.21715789 71.8250184,5.21715789 C70.2144154,5.21715789 68.2884265,5.46205263 66.048,5.95136842 C65.9621581,6.57331579 65.9000294,7.02947368 65.8611397,7.32126316 C65.8217757,7.61257895 65.7288199,8.14263158 65.5813235,8.91189474 C67.5485735,8.15826316 69.2009118,7.78121053 70.5383382,7.78121053 C71.0206654,7.78121053 71.3858493,7.86126316 71.6348382,8.02042105 C71.8833529,8.17957895 72.0080846,8.40694737 72.0080846,8.70252632 C72.0080846,8.811 71.9881654,8.91426316 71.94975,9.01089474 C71.9108603,9.10847368 71.8463603,9.20131579 71.7571985,9.29084211 C71.6675625,9.37989474 71.5508934,9.45852632 71.4071912,9.52389474 C71.263489,9.59021053 71.0225625,9.66789474 70.6839375,9.75694737 C70.3457868,9.846 69.9744375,9.92984211 69.5698897,10.0075263 C68.5976471,10.1941579 67.7947169,10.3921579 67.1610993,10.602 C66.5274816,10.8113684 66.0276066,11.0349474 65.6619485,11.2722632 C65.2962904,11.5091053 64.9775846,11.7947368 64.7053566,12.1291579 C64.4331287,12.4631053 64.232989,12.8051053 64.1044632,13.1546842 C63.9759375,13.5042632 63.9119118,13.8618947 63.9119118,14.2271053 C63.9119118,14.8258421 64.0850184,15.4236316 64.4312316,16.0218947 C64.7769706,16.6206316 65.2711544,17.0535789 65.9133088,17.3216842 C66.554989,17.5893158 67.3583934,17.7238421 68.3230478,17.7238421 C68.9220441,17.7238421 69.556136,17.6693684 70.2253235,17.5604211 C70.7470147,17.4524211 71.3787353,17.2506316 71.7519816,17.1246316 C71.7410735,17.2316842 71.7296912,17.3330526 71.7187831,17.4206842 C72.5440037,17.4050526 73.3222721,17.397 74.0540625,17.397 C74.8090919,17.397 75.5679154,17.4050526 76.3310074,17.4206842 C76.3926618,14.9494737 76.4822978,12.9524211 76.5984926,11.43 C76.7151618,9.90710526 76.7734963,8.928 76.7734963,8.49268421 C76.7739706,7.63768421 76.5600772,6.98115789 76.1318162,6.52263158 Z M71.0576581,14.9343158 C71.0059632,14.9499474 70.8598897,14.9930526 70.8257426,15.0034737 C70.5947757,15.0745263 70.4064926,15.1204737 70.2608934,15.1417895 C70.0740331,15.1692632 69.8990294,15.1825263 69.7358824,15.1825263 C69.2767941,15.1825263 68.9424375,15.0892105 68.7323382,14.9025789 C68.522239,14.7159474 68.4169522,14.4909474 68.4169522,14.2266316 C68.4169522,14.0561053 68.4539449,13.9002632 68.5274559,13.7605263 C68.6009669,13.6207895 68.7252243,13.4848421 68.9002279,13.3526842 C69.0747574,13.221 69.2805882,13.1120526 69.5172463,13.0267895 C69.7539044,12.9410526 70.0820956,12.8363684 70.5008713,12.7117895 C70.9201213,12.5876842 71.2127426,12.4943684 71.3801581,12.4323158 C71.5470993,12.3697895 71.7780662,12.2688947 72.0730588,12.1291579 C72.0280037,13.0608947 71.9843713,13.8822632 71.9421618,14.5932632 C71.8615368,14.6292632 71.7761691,14.6662105 71.6737279,14.7026842 C71.4484522,14.7827368 71.1098272,14.9191579 71.0576581,14.9343158 Z" id="XMLID_445_" fill="#EFF6FF"></path>
                    <path d="M117.138165,6.52263158 C116.710379,6.06410526 116.114702,5.73205263 115.352559,5.526 C114.589941,5.31994737 113.749544,5.21715789 112.831368,5.21715789 C111.220765,5.21715789 109.294776,5.46205263 107.054349,5.95136842 C106.968507,6.57331579 106.906853,7.02947368 106.867489,7.32126316 C106.828599,7.61257895 106.735169,8.14263158 106.587673,8.91189474 C108.554923,8.15826316 110.207261,7.78121053 111.544687,7.78121053 C112.027015,7.78121053 112.392199,7.86126316 112.641187,8.02042105 C112.889702,8.17957895 113.014434,8.40694737 113.014434,8.70252632 C113.014434,8.811 112.994989,8.91426316 112.956099,9.01089474 C112.916735,9.10847368 112.85271,9.20131579 112.763548,9.29084211 C112.674386,9.37989474 112.557243,9.45852632 112.41354,9.52389474 C112.269838,9.59021053 112.028437,9.66789474 111.690287,9.75694737 C111.352136,9.846 110.980787,9.92984211 110.576239,10.0075263 C109.603996,10.1941579 108.801066,10.3921579 108.167449,10.602 C107.533357,10.8113684 107.033956,11.0349474 106.668298,11.2722632 C106.30264,11.5091053 105.983934,11.7947368 105.711706,12.1291579 C105.439478,12.4631053 105.239338,12.8051053 105.110812,13.1546842 C104.982761,13.5042632 104.918261,13.8618947 104.918261,14.2271053 C104.918261,14.8258421 105.091368,15.4236316 105.437581,16.0218947 C105.783794,16.6206316 106.277504,17.0535789 106.919658,17.3216842 C107.561338,17.5893158 108.364743,17.7238421 109.329397,17.7238421 C109.928393,17.7238421 110.562485,17.6693684 111.231673,17.5604211 C111.753364,17.4524211 112.385085,17.2506316 112.758331,17.1246316 C112.746949,17.2316842 112.73604,17.3330526 112.725132,17.4206842 C113.550353,17.4050526 114.328621,17.397 115.060412,17.397 C115.815441,17.397 116.574265,17.4050526 117.337357,17.4206842 C117.399011,14.9494737 117.488647,12.9524211 117.604842,11.43 C117.721511,9.90710526 117.779846,8.928 117.779846,8.49268421 C117.78032,7.63768421 117.566426,6.98115789 117.138165,6.52263158 Z M112.064007,14.9343158 C112.012312,14.9499474 111.865765,14.9930526 111.832092,15.0034737 C111.601125,15.0745263 111.412842,15.1204737 111.267243,15.1417895 C111.080857,15.1692632 110.905379,15.1825263 110.742232,15.1825263 C110.283143,15.1825263 109.948787,15.0892105 109.738687,14.9025789 C109.528588,14.7159474 109.423301,14.4909474 109.423301,14.2266316 C109.423301,14.0561053 109.460294,13.9002632 109.533805,13.7605263 C109.607316,13.6207895 109.732048,13.4848421 109.906577,13.3526842 C110.081107,13.221 110.286937,13.1120526 110.523596,13.0267895 C110.760254,12.9410526 111.088445,12.8363684 111.507221,12.7117895 C111.926471,12.5876842 112.219092,12.4943684 112.386507,12.4323158 C112.553449,12.3697895 112.784415,12.2688947 113.079408,12.1291579 C113.034353,13.0608947 112.990721,13.8822632 112.948511,14.5932632 C112.867412,14.6292632 112.782518,14.6662105 112.680077,14.7026842 C112.454801,14.7827368 112.116176,14.9191579 112.064007,14.9343158 Z" id="XMLID_442_" fill="#EFF6FF"></path>
                    <path d="M64.0821728,4.88936842 L59.9968566,4.83205263 C58.3762941,4.83205263 57.2067574,5.45921053 56.4223235,6.74952632 C55.9660809,7.50173684 55.7137721,8.33921053 55.6516434,9.31073684 C55.5861949,10.3357895 55.7199375,11.2523684 56.0486029,12.0348947 C56.5408897,13.2067895 57.7535846,13.9940526 59.0668235,13.9940526 C60.8092721,13.9940526 62.8007096,13.9296316 62.8709007,13.9248947 L63.1241581,17.6812105 C63.0767316,17.6845263 60.9885441,17.7598421 59.0672978,17.7598421 C56.2103272,17.7598421 53.6606801,16.0844211 52.5717684,13.4905263 C52.0164044,12.1675263 51.7868603,10.6806316 51.8893015,9.07105263 C51.9893713,7.49984211 52.4304375,6.06126316 53.2001691,4.79557895 C54.6831949,2.35610526 57.0331765,1.06626316 59.9968566,1.06626316 L60.0319522,1.06626316 L64.152364,1.125 L64.0821728,4.88936842 Z" id="XMLID_441_" fill="#EFF6FF"></path>
                    <path d="M119.094507,17.1331579 C119.094507,17.1331579 123.554967,17.9952632 125.86179,17.3273684 C127.311618,16.9076842 128.477835,15.7684737 128.477835,14.2086316 C128.477835,13.257 128.13921,12.5047895 127.392717,11.8231579 C126.926515,11.3977895 126.008338,10.7606842 125.342945,10.269 C125.154662,10.1297368 124.773827,9.82942105 124.568945,9.65984211 C124.39821,9.51868421 124.267787,9.32068421 124.267787,9.10421053 C124.267787,8.77026316 124.530055,8.55426316 124.830739,8.46521053 C125.163199,8.36573684 125.62039,8.33210526 126.033949,8.33210526 C126.431857,8.33210526 126.882408,8.38705263 127.350507,8.48226316 C127.818607,8.57747368 128.311368,8.72905263 128.747217,8.94221053 L128.414757,5.53642105 C128.414757,5.53642105 123.954298,4.67431579 121.647474,5.34221053 C120.197647,5.76189474 119.03143,6.90110526 119.03143,8.46094737 C119.03143,9.41257895 119.370055,10.1647895 120.116548,10.8464211 C120.58275,11.2722632 121.500926,11.9088947 122.16632,12.4005789 C122.354603,12.5398421 122.735437,12.8401579 122.94032,13.0097368 C123.111055,13.1508947 123.255232,13.3342105 123.255232,13.5506842 C123.255232,13.8846316 122.97921,14.1148421 122.678051,14.2038947 C122.345592,14.3033684 121.888401,14.337 121.474842,14.337 C121.076934,14.337 120.626382,14.2820526 120.158283,14.1868421 C119.690184,14.0916316 119.197897,13.9400526 118.761574,13.7268947 L119.094507,17.1331579 Z" id="XMLID_440_" fill="#EFF6FF"></path>
                    <path d="M37.7144779,13.9935789 C37.5745699,14.6463158 37.4536324,15.2838947 37.352614,15.9048947 L37.0955625,17.3268947 C36.3253566,17.4974211 35.7244632,17.6068421 35.2924081,17.6532632 C34.8608272,17.6996842 34.4425257,17.7233684 34.0379779,17.7233684 C33.3763787,17.7233684 32.789239,17.667 32.2760846,17.5542632 C31.7629301,17.4415263 31.3346691,17.2354737 30.9927243,16.9361053 C30.6503051,16.6372105 30.4169669,16.2933158 30.2922353,15.9044211 C30.1675037,15.516 30.105375,15.1043684 30.105375,14.6690526 C30.105375,14.5918421 30.1091691,14.4535263 30.1167574,14.2555263 C30.1243456,14.0575263 30.1518529,13.6160526 30.1983309,12.9325263 L30.4534853,8.89957895 L28.6351544,8.89957895 C28.6740441,8.36336842 28.7086654,7.65663158 28.7399669,6.77794737 L28.7750625,5.69415789 L30.7086397,5.69415789 C30.7551176,5.337 30.8129779,4.55589474 30.8826949,3.35178947 L35.1719449,3.34042105 C35.1719449,3.34042105 35.1159816,4.86284211 35.0993824,5.69415789 L37.7604816,5.69415789 C37.6978787,7.31036842 37.6670515,8.379 37.6670515,8.89957895 L34.982239,8.89957895 L34.8418566,11.8132105 C34.8262059,12.2485263 34.8186176,12.5284737 34.8186176,12.6521053 C34.8186176,13.0253684 34.8598787,13.3361053 34.9409779,13.5847895 C35.0225515,13.8334737 35.1667279,14.0120526 35.3730331,14.121 C35.5793382,14.2299474 35.8069853,14.2844211 36.0559743,14.2844211 C36.2428346,14.2844211 36.4372831,14.2711579 36.6397941,14.2436842 C36.8427794,14.2171579 37.2008493,14.1333158 37.7144779,13.9935789 Z" id="XMLID_438_" fill="#187FFD"></path>
                    <path d="M27.1582941,6.52263158 C26.7305074,6.06410526 26.1348309,5.73205263 25.3726875,5.526 C24.6100699,5.31994737 23.7696728,5.21715789 22.8514963,5.21715789 C21.2408934,5.21715789 19.3149044,5.46205263 17.0744779,5.95136842 C16.988636,6.57331579 16.9265074,7.02947368 16.8880919,7.32126316 C16.8487279,7.61257895 16.7557721,8.14263158 16.6082757,8.91189474 C18.5755257,8.15826316 20.227864,7.78121053 21.5652904,7.78121053 C22.0476176,7.78121053 22.4128015,7.86126316 22.6617904,8.02042105 C22.9103051,8.17957895 23.0350368,8.40694737 23.0350368,8.70252632 C23.0350368,8.811 23.0151176,8.91426316 22.9767022,9.01089474 C22.9373382,9.10847368 22.8733125,9.20131579 22.7841507,9.29084211 C22.694989,9.37989474 22.5778456,9.45852632 22.4341434,9.52389474 C22.2904412,9.59021053 22.0490404,9.66789474 21.7108897,9.75694737 C21.372739,9.846 21.0013897,9.92984211 20.5968419,10.0075263 C19.6245993,10.1941579 18.8216691,10.3921579 18.1880515,10.602 C17.5544338,10.8113684 17.0545588,11.0349474 16.6889007,11.2722632 C16.3232426,11.5091053 16.0045368,11.7947368 15.7323088,12.1291579 C15.4600809,12.4631053 15.2599412,12.8051053 15.1314154,13.1546842 C15.0028897,13.5042632 14.938864,13.8618947 14.938864,14.2271053 C14.938864,14.8258421 15.1119706,15.4236316 15.4581838,16.0218947 C15.8039228,16.6206316 16.2981066,17.0535789 16.940261,17.3216842 C17.5819412,17.5893158 18.3853456,17.7238421 19.35,17.7238421 C19.9489963,17.7238421 20.5830882,17.6693684 21.2522757,17.5604211 C21.7739669,17.4524211 22.4056875,17.2506316 22.7789338,17.1246316 C22.7680257,17.2316842 22.7566434,17.3330526 22.7457353,17.4206842 C23.5709559,17.4050526 24.3492243,17.397 25.0810147,17.397 C25.8360441,17.397 26.5948676,17.4050526 27.3579596,17.4206842 C27.419614,14.9494737 27.50925,12.9524211 27.6254449,11.43 C27.742114,9.90710526 27.8004485,8.928 27.8004485,8.49268421 C27.8004485,7.63768421 27.5860809,6.98115789 27.1582941,6.52263158 Z M22.084136,14.9343158 C22.0324412,14.9499474 21.8863676,14.9930526 21.8522206,15.0034737 C21.6212537,15.0745263 21.4329706,15.1204737 21.2873713,15.1417895 C21.100511,15.1692632 20.9255074,15.1825263 20.7623603,15.1825263 C20.3032721,15.1825263 19.9689154,15.0892105 19.7588162,14.9025789 C19.5487169,14.7159474 19.4434301,14.4909474 19.4434301,14.2266316 C19.4434301,14.0561053 19.4804228,13.9002632 19.5539338,13.7605263 C19.6274449,13.6207895 19.7517022,13.4848421 19.9267059,13.3526842 C20.1012353,13.221 20.3070662,13.1120526 20.5437243,13.0267895 C20.7803824,12.9410526 21.1085735,12.8363684 21.5273493,12.7117895 C21.9465993,12.5876842 22.2392206,12.4943684 22.4061618,12.4323158 C22.5731029,12.3697895 22.8040699,12.2688947 23.0990625,12.1291579 C23.0540074,13.0608947 23.010375,13.8822632 22.9681654,14.5932632 C22.8870662,14.6292632 22.8021728,14.6662105 22.6997316,14.7026842 C22.4749301,14.7827368 22.1358309,14.9191579 22.084136,14.9343158 Z" id="XMLID_435_" fill="#187FFD"></path>
                    <path d="M50.381614,6.52263158 C49.9538272,6.06410526 49.3581507,5.73205263 48.5960074,5.526 C47.8333897,5.31994737 46.9929926,5.21715789 46.0748162,5.21715789 C44.4642132,5.21715789 42.5386985,5.46205263 40.2977978,5.95136842 C40.2119559,6.57331579 40.1498272,7.02947368 40.1109375,7.32126316 C40.0720478,7.61257895 39.9786176,8.14263158 39.8311213,8.91189474 C41.7983713,8.15826316 43.4507096,7.78121053 44.788136,7.78121053 C45.2704632,7.78121053 45.6356471,7.86126316 45.884636,8.02042105 C46.1331507,8.17957895 46.2578824,8.40694737 46.2578824,8.70252632 C46.2578824,8.811 46.2384375,8.91426316 46.1995478,9.01089474 C46.1606581,9.10847368 46.0961581,9.20131579 46.0069963,9.29084211 C45.9178346,9.37989474 45.8006912,9.45852632 45.656989,9.52389474 C45.5132868,9.59021053 45.271886,9.66789474 44.9337353,9.75694737 C44.5955846,9.846 44.2242353,9.92984211 43.8196875,10.0075263 C42.8474449,10.1941579 42.0445147,10.3921579 41.4108971,10.602 C40.7772794,10.8113684 40.2774044,11.0349474 39.9117463,11.2722632 C39.5460882,11.5091053 39.2273824,11.7947368 38.9551544,12.1291579 C38.6829265,12.4631053 38.4827868,12.8051053 38.354261,13.1546842 C38.2257353,13.5042632 38.1617096,13.8618947 38.1617096,14.2271053 C38.1617096,14.8258421 38.3348162,15.4236316 38.6810294,16.0218947 C39.0267684,16.6206316 39.5209522,17.0535789 40.1631066,17.3216842 C40.8047868,17.5893158 41.6081912,17.7238421 42.5728456,17.7238421 C43.1718419,17.7238421 43.8059338,17.6693684 44.4751213,17.5604211 C44.9968125,17.4524211 45.6285331,17.2506316 46.0017794,17.1246316 C45.9903971,17.2316842 45.979489,17.3330526 45.9685809,17.4206842 C46.7938015,17.4050526 47.5720699,17.397 48.3038603,17.397 C49.0588897,17.397 49.8177132,17.4050526 50.5808051,17.4206842 C50.6424596,14.9494737 50.7320956,12.9524211 50.8482904,11.43 C50.9649596,9.90710526 51.0232941,8.928 51.0232941,8.49268421 C51.0242426,7.63768421 50.809875,6.98115789 50.381614,6.52263158 Z M45.3079301,14.9343158 C45.2562353,14.9499474 45.1096875,14.9930526 45.0760147,15.0034737 C44.8450478,15.0745263 44.6567647,15.1204737 44.5111654,15.1417895 C44.3243051,15.1692632 44.1493015,15.1825263 43.9861544,15.1825263 C43.5270662,15.1825263 43.1927096,15.0892105 42.9826103,14.9025789 C42.772511,14.7159474 42.6672243,14.4909474 42.6672243,14.2266316 C42.6672243,14.0561053 42.7042169,13.9002632 42.7777279,13.7605263 C42.851239,13.6207895 42.9754963,13.4848421 43.1505,13.3526842 C43.3250294,13.221 43.5308603,13.1120526 43.7675184,13.0267895 C44.0041765,12.9410526 44.3323676,12.8363684 44.7511434,12.7117895 C45.1703934,12.5876842 45.4630147,12.4943684 45.6304301,12.4323158 C45.7973713,12.3697895 46.0283382,12.2688947 46.3233309,12.1291579 C46.2782757,13.0608947 46.2346434,13.8822632 46.1924338,14.5932632 C46.1113346,14.6292632 46.0264412,14.6662105 45.924,14.7026842 C45.69825,14.7827368 45.359625,14.9191579 45.3079301,14.9343158 Z" id="XMLID_432_" fill="#187FFD"></path>
                    <path d="M7.49290809,4.85573684 C8.85452206,4.85573684 10.0411324,5.65673684 10.5149228,6.78457895 C10.7093713,7.24831579 10.9711654,8.15636842 10.8848493,9.51347368 C10.794739,10.7374737 10.1952684,12.1116316 9.58536397,12.7681579 C8.97545956,13.4246842 7.85240074,13.9703684 6.56382353,13.9703684 L4.24704044,13.9121053 L4.64020588,4.92536842 C4.63973162,4.92584211 5.67742279,4.85573684 7.49290809,4.85573684 Z M7.49290809,1.06626316 C5.57166176,1.06626316 4.43200368,1.14157895 4.38457721,1.14489474 L0.997378676,1.37273684 L0.848933824,4.76052632 L0.456242647,13.7467895 L0.287404412,17.6030526 L4.15076471,17.7001579 L6.46754779,17.7584211 L6.51544853,17.7598421 L6.56334926,17.7598421 C9.63421324,17.7598421 12.2502574,16.3923158 13.5639706,13.7728421 C13.8286103,13.2693158 14.5319449,11.9321053 14.6709044,9.75457895 C14.8141324,7.51121053 14.2758419,5.94284211 14.0140478,5.31994737 C12.9009485,2.66921053 10.2962868,1.06626316 7.49290809,1.06626316 Z" id="XMLID_429_" fill="#187FFD"></path>
                    <polygon id="XMLID_428_" fill="#EFF6FF" points="108.840614 0.142105263 108.840614 0.142105263 108.43114 1.10463158"></polygon>
                    <polygon id="XMLID_427_" fill="#187FFD" points="101.991099 4.48105263 102.197879 3.85815789 102.305537 3.53273684 101.215202 3.53273684 99.9318419 7.398 104.75132 7.398 105.720243 4.48105263 102.647956 4.48105263"></polygon>
                    <polygon id="XMLID_426_" fill="#2687FF" points="103.931316 0.142105263 103.417213 1.69057895 102.805412 3.53273684 102.647956 4.00736842 105.877224 4.00736842 107.467434 4.00736842 108.43114 1.10463158 108.750794 0.142105263"></polygon>
                    <polygon id="XMLID_425_" fill="#EFF6FF" points="107.467434 4.00736842 108.43114 1.10463158"></polygon>
                </g>
            </g>
        </g>
    </g>
</svg>